<?xml version="1.0" encoding="UTF-8"?>
<svg version="1.1" viewBox="0 0 2048 841" width="375" height="154" xmlns="http://www.w3.org/2000/svg">
<path transform="translate(0)" d="m0 0h2048v841h-2048z" fill="#FDFDFD"/>
<path transform="translate(901,21)" d="m0 0h17l30 2 32 4 31 6 30 8 33 11 26 11 17 8 22 12 20 12 19 13 16 12 10 8 13 11 13 12 21 21 7 8 13 16 15 20 13 19 4 1 15-10 25-14 21-10 28-11 25-8 29-7 37-6 26-2h23l28 2 28 4 28 6 27 8 21 8 25 11 23 12 20 12 16 11 17 13 15 13 10 9 17 17 7 8 13 16 13 18 12 19 9 16 11 20v2l-45 1h-31l-7-1-5-5-12-17-11-14-13-15-17-17-22-18-16-11-20-12-19-10-25-10-22-7-26-6-25-4-11-1h-48l-24 3-24 5-25 7-24 9-23 11-17 10-22 15-16 13-16 11-9 4-4 1h-9l-11-4-8-6-8-9-12-21-9-16-10-15-14-19-11-13-9-10-10-11-8-7-13-12-14-11-13-10-23-15-25-14-21-10-26-10-26-8-26-6-30-5-36-3h-31l-30 3-23 4-30 7-23 7-21 8-18 8-20 10-25 15-18 13-14 11-11 9-13 12-17 17-9 11-13 16-13 19-13 21-15 29-12 29-14 43-1 1h-78l-1-2 16-54 10-28 13-29 13-25 14-23 13-19 13-17 11-13 11-12 9-10 15-15 8-7 11-10 14-11 17-13 20-13 15-9 27-14 19-9 28-11 31-10 29-7 26-5 41-5z" fill="#36CCF0"/>
<path transform="translate(205,327)" d="m0 0h30l20 2 25 5 18 6 19 9 14 9 13 10 12 11 9 10 12 17 10 18 7 19 6 21 4 22 2 25v21l-2 24-4 24-5 19-6 16-11 21-8 12-14 17-7 7-14 11-13 8-16 8-15 6-17 5-21 4-19 2h-23l-24-3-21-4-21-7-19-9v-2l-5-1v-2l-4-1-2-1v-2h-3v-2l-4-1v-2h-3l-1-2-4-2-4-4-8-7-6-8-6-5-15-23-8-18-8-24-4-22-3-23v-34l2-22 6-30 7-21 3-7h2l1-6 7-13h2v-3h2l1-5 9-12 4-5h2l2-4 10-10 14-11 15-10 17-8 18-6 24-5z" fill="#424142"/>
<path transform="translate(603,431)" d="m0 0h22l14 2 16 5 14 7 14 10 15 15 11 15 8 16 7 21 4 23 1 10v36l-4 27-5 19-7 16-10 16-8 10-13 13-15 10-15 7-17 5-14 2h-13l-14-2-16-5-12-7-3-1v-2h-3v-2l-4-1v-2l-5-2-2-3-5-3-7-7-2-1v130h-71l-1-1v-370l60-1 6 1 1 3v32l1 1 7-9 10-10 13-9 16-8 18-5z" fill="#424142"/>
<path transform="translate(1047,123)" d="m0 0 10 2 6 2 9 2 3 2 2-2 17 7 13 8 17 8 17 9 14 11 4 2-4-4 5 2 8 4 5 1h13l3-5 8 1 5 3 1 3 8 4 3-2-1-4-6-4-2-4 3-9 7-1 11 3 11 11 22 18h6l7 6 14 19 13 19 4 1 15-10 25-14 21-10 28-11 25-8 29-7 37-6 26-2h23l28 2 28 4 28 6 27 8 21 8 25 11 23 12 20 12 16 11 17 13 15 13 10 9 17 17 7 8 13 16 13 18 12 19 9 16 11 20v2l-45 1h-31l-7-1-5-5-12-17-11-14-13-15-17-17-22-18-16-11-20-12-19-10-25-10-22-7-26-6-25-4-11-1h-48l-24 3-24 5-25 7-24 9-23 11-17 10-22 15-16 13-16 11-9 4-4 1h-9l-11-4-8-6-8-9-12-21-9-16-10-15-14-19-11-13-9-10-10-11-8-7-13-12-14-11-13-10-23-15-25-14-21-10-18-7z" fill="#33AFF1"/>
<path transform="translate(1364,431)" d="m0 0h41l24 3 16 4 19 9 9 7 10 10 7 12 5 19 2 21v124l2 23 5 25 7 21-1 1h-68l-3-1-4-13-2-11-1-6-5 3-12 11-11 7-16 8-21 6-13 2h-12l-16-2-17-5-16-8v-2h-3l-1-2-6-3-8-8-5-7-3-9h-2l-6-15-3-13v-13l3-15 5-15 7-12 9-10 6-4 5-5 16-8 21-7 36-8 28-6 16-4 8-3 8-4v-11l-2-10-4-8-1-3-10-5v-2l-9-1-7-1h-22l-10 2-12 6-5 4-12 20-8-1-22-4-18-3-16-4 1-9 7-16 10-16 6-7 13-10 11-6 12-5 21-5z" fill="#424142"/>
<path transform="translate(874,431)" d="m0 0h27l21 3 17 5 16 8 12 8 12 11 10 11 9 14 8 17 6 21 3 16 3 29v12l-1 9-21 1h-157l2 15 5 16 5 10 8 9 10 7 12 5 5 1h20l13-4 8-7 5-4 2-5h2l2-9h2v-6l1-1 14 1 41 6 15 3 2 1-1 5-10 21-11 16-15 15-16 10-13 6-21 6-21 3h-17l-18-2-26-6-18-8-4-3-3-1v-2h-3v-2l-5-2v-2l-4-1-7-6-9-11-9-13-9-19-6-21-3-15-1-13v-26l2-23 6-23 7-18 11-18 8-10 12-12 12-9 14-8 15-6 17-4z" fill="#424142"/>
<path transform="translate(214,393)" d="m0 0h18l16 2 15 4 10 5 3 3 10 7 10 9 6 7 9 15 7 19 4 16 2 27v24l-1 23-3 17-4 14-4 10-7 12-9 11-9 9-16 11-13 6-14 4-6 1h-31l-17-4-13-5-13-8-14-12-10-12-8-14-6-15-6-26-2-20v-27l3-23 4-19 9-21 8-12 9-10 8-8 14-9 15-6 16-4z" fill="#FDFDFD"/>
<path transform="translate(1553,171)" d="m0 0h16l30 5 28 7 27 9 24 10 25 12 24 14 21 14 17 13 15 13 10 9 17 17 7 8 13 16 13 18 12 19 9 16 11 20v2l-45 1h-31l-7-1-5-5-12-17-11-14-13-15-17-17-22-18-16-11-20-12-19-10-25-10-22-7-26-6-25-4-11-1h-48l-24 3-24 5-25 7-24 9-23 11-17 10-22 15-16 13-16 11-4 2h-5v-2l9-7 10-13 9-6h3l2-4 7-7 12-7 7-6 6-4 13-8 8-4 17-6 13-4 8-4 12-4 21-8 21-6 13-4 16-3 10-3 9-5h15l1-3 4-3 1-3-8-4 3-3 15-6 10 1 8-2-6-2 1-2h2v-2l2-1 1-3-5-2-5-8-9-2z" fill="#309CF3"/>
<path transform="translate(1190,431)" d="m0 0h20l14 3 16 7 5 4v10l-15 45-5 12-5-1-15-6-4-1h-20l-10 4-9 8-7 12-5 15-2 14-2 31-1 121-3 1h-71l-1-6v-250l1-17 41-1h27l1 35 5-7h2l1-4 3-4h2l2-4 6-7 13-9 11-4z" fill="#424141"/>
<path transform="translate(939,23)" d="m0 0h9l32 4 31 6 30 8 33 11 26 11 17 8 22 12 20 12 19 13 16 12 10 8 13 11 13 12 21 21 7 8 9 11-1 2-5-1-5-2-9-8-11-9-10-10-11-3-7 1-2 10 5 4 4 3-1 4-5 2-6-5-3-4-7-2-5 1-2 4h-13l-8-2-7-4 3 4-5-2-11-9-13-8-30-15-11-6-14-6-3 3-2-4-9-1-13-4-8-1-25-8-30-7-30-5-36-3h-31l-30 3-23 4-30 7-23 7-21 8-18 8-20 10-25 15-18 13-9 7-2-2 5-5 13-11 16-11 20-13 16-8 25-10 34-11h3l1-5 14-5 5-2 13-4-1-2 11-4 13-3 17-3 15-4 7-4 6-3h2l2-4 6-4 1-2h2v-3l6-3 10-9 15-6v-4l-4-4 1-2 6 2-8-6-4-2z" fill="#34BFF0"/>
<path transform="translate(589,486)" d="m0 0h14l10 2 5 2v2l5 2 8 6 8 8 7 12 5 16 3 19v36l-4 25-5 14-7 10-5 6-10 7-4 1v2l-11 4h-20l-13-4-12-7-12-12-8-14-5-18-3-16-1-9v-23l3-20 4-12 8-15 9-10 8-6 10-5 6-2z" fill="#FDFDFD"/>
<path transform="translate(1886,546)" d="m0 0h19l1 49 1 6 4-5 11-8 7-3 5-1h10l13 3 11 6 11 11 8 16 4 18v25l-4 16-6 12-11 12-8 6-11 5-5 1h-14l-10-4-11-8-5-6-2-1 1 18-1 1h-19l-1-88v-80z" fill="#424142"/>
<path transform="translate(1797,584)" d="m0 0h11l14 3 11 6 7 6 9 12 5 11 3 12v20l-1 1-88 1 1 10 4 10 6 8 9 6 6 2h19l9-4 8-6 4-6 2-4h7l12 5 1 4-7 14-11 11-13 6-13 3h-19l-9-2-12-5-9-7-4-6-2-1-2-6h-2l-1-6h-2l-4-11-2-13v-21l4-15 2-5h2l2-7 7-9 9-8 12-6 7-2z" fill="#424142"/>
<path transform="translate(1595,589)" d="m0 0 4 1 5 16 17 72 1 6 3-3 4-12 6-25 6-22 1-7 2-4 1-7h2l1-10 2-4h18l4 15 16 74 2 2 3-8 8-29 1-7h2l2-10 1-7h2l2-14 4-10 2-6h19l-4 16-17 56-11 36-5 15-2 2h-17l-3-3-7-28-10-46-3-10-1-1-10 42-10 40-3 6h-18l-3-1-10-34-3-12-2-11-2-7v-4h-2l-2-10-3-9-2-10-3-8-1-11h-2v-8z" fill="#434344"/>
<path transform="translate(887,486)" d="m0 0h12l12 3 10 5v2l4 1 4 5 4 3v3h2l7 19 3 15v9h-103l-2-4 1-14 3-11 7-14 10-11 11-7 9-3z" fill="#FDFDFD"/>
<path transform="translate(1421,585)" d="m0 0h4v21l-1 14-3 12-6 9-9 8-12 7-13 4h-22l-12-5-10-9-5-11-1-4v-9l4-8 5-5 5-4 12-5 19-5 38-8z" fill="#FDFDFD"/>
<path transform="translate(1931,606)" d="m0 0h12l11 4 8 7 6 10 2 8v27l-2 8h-2l-1 4-6 9-5 6-10 4h-16l-10-5-7-7-5-11-2-10v-23l4-11 6-9 8-7z" fill="#FBFDFD"/>
<path transform="translate(1795,606)" d="m0 0h15l10 3 8 6 7 10 2 7-2 1h-68v-6l5-8 9-8 10-4z" fill="#FCFDFD"/>
<path transform="translate(461,437)" d="m0 0h2l1 371h-4l-1-17v-335l1-16z" fill="#309CF3"/>
<path transform="translate(305,344)" d="m0 0 6 2 16 9 12 9 13 11 8 8 13 17 8 13 8 16 9 27 5 23 2 17 1 15v21l-2 24-4 24-5 19-6 16-11 21-8 12-14 17-7 7-14 11-13 8-13 7h-2v-2l19-11 11-8 11-9 11-11 10-13 10-17 10-22 7-23 4-23 2-23v-22l-3-27-5-26-7-23-8-19-8-14-7-10-4-7-12-13-10-8-11-8-22-14z" fill="#AE651E"/>
<path transform="translate(1450,441)" d="m0 0 6 2 11 6 10 9 8 9 6 12 4 16 2 21v124l2 23 5 25 7 21-5-1-5-12-5-18-3-26-1-20v-32l1-26v-45l-2-28-3-17-7-17-9-10-6-5-13-8z" fill="#AE651E"/>
<path transform="translate(647,436)" d="m0 0 6 1 16 8 14 10 15 15 11 15 8 16 7 21 4 23 1 10v36l-4 27-5 19-7 16-10 16-8 10-13 13-15 10-6 3h-2v-2l16-10 12-11 9-9 10-15 7-14 6-16 5-25 1-10v-32l-2-17-6-29-6-16-13-24-14-15-16-11-15-9-6-3z" fill="#AE651E"/>
<path transform="translate(172,403)" d="m0 0 3 1-13 8-10 9-7 7-10 15-7 16-3 9-5 28-1 10v27l2 20 6 26 8 19 7 11 9 11 10 9 11 7 12 6 3 2-7-1-16-8-16-12-9-10-7-11-7-15-5-15-5-28-1-15v-15l2-21 5-27 8-19 9-15 11-12 8-8 11-7z" fill="#AE651E"/>
<path transform="translate(1071,439)" d="m0 0h1l1 26 1 68v107l-1 70h-2l-1-6v-250z" fill="#31A6F3"/>
<path transform="translate(460,440)" d="m0 0 2 1v367h-2l-1-17v-335z" fill="#34BEF1"/>
<path transform="translate(281,410)" d="m0 0 6 2 9 7 8 10 9 15 6 15 5 18 3 19v49l-3 20-5 18-10 22-8 11-12 12-10 7-5 1 5-4 11-9 8-8 8-11 8-16 3-9 4-17 1-8 1-23v-24l-2-27-5-19-6-16-9-15-9-10-11-9z" fill="#30A3F3"/>
<path transform="translate(573,489)" d="m0 0 3 1-12 6-10 9-7 10-7 15-3 12-2 15v23l3 20 4 17 5 12 7 10 9 9 12 7-3 1-11-6-10-8-8-10-5-11-4-15-3-17-1-10v-22l3-21 5-12 8-13 8-10 10-8z" fill="#AE651E"/>
<path transform="translate(1170,506)" d="m0 0 3 1-8 6-7 9-6 14-3 12-2 21-1 19-1 121h-2l-1-2v-131l3-33 4-10 9-16 6-7z" fill="#AE651E"/>
<path transform="translate(797,471)" d="m0 0 1 3-12 17-8 16-6 18-3 16-2 21v25l2 20 5 23 6 16 7 13 12 17 6 8-4-2-11-13-9-14-8-17-6-21-3-15-1-13v-26l2-23 6-23 7-18 11-18z" fill="#31A4F3"/>
<path transform="translate(953,447)" d="m0 0 5 2 10 7 10 9 7 7 10 14 9 17 6 18 4 17 3 23 1 13v12l-1 9h-2l-3-35-5-30-6-21-7-15-8-16-12-13-11-10-10-7z" fill="#AE651E"/>
<path transform="translate(1598,592)" d="m0 0h2l7 26 13 56 2 7-1 4-3-7-3-5-6-14-4-11-3-14-1-9-2-10-1-8z" fill="#AE651E"/>
<path transform="translate(53,434)" d="m0 0 1 3-6 20-3 14-3 34v32l2 25 4 22 4 16 6 15 8 16 10 15 3 5-1 2-8-11-10-16-7-16-8-24-4-22-3-23v-34l2-22 6-30z" fill="#31A5F3"/>
<path transform="translate(622,493)" d="m0 0 5 1 10 9 4 5 6 9 6 16 3 16 1 15v16l-1 18-3 15-5 15-6 11-10 11-10 6-3-1 4-3 11-8 6-8 5-8 5-16 3-21v-36l-4-23-5-14-7-11-9-9-6-4z" fill="#31A7F3"/>
<path transform="translate(534,678)" d="m0 0h1v130h-2l-1-3v-95l1-25z" fill="#AE651E"/>
<path transform="translate(1961,590)" d="m0 0 5 2 8 7 7 8 7 16 3 15v25l-4 16-6 12-11 12-2 1 2-4 8-9 8-16 1-13-1-27-2-14-8-16-6-7-9-7z" fill="#AE651E"/>
<path transform="translate(281,410)" d="m0 0 6 2 9 7 8 10 9 15 6 15 5 18 3 19v49l-2 4v-44l-1-16h-2l-2-14-7-23-8-16-8-11-8-8-8-6z" fill="#30A2F3"/>
<path transform="translate(1667,590)" d="m0 0 2 2 9 41 8 37-1 4-4-8-6-19-7-41-2-10v-5z" fill="#AE651E"/>
<path transform="translate(1281,576)" d="m0 0v3l-8 10-8 16-3 11-1 7v24l3 15 2 3v5l-3-4-5-15-2-9v-13l3-15 5-15 7-12 9-10z" fill="#30A3F3"/>
<path transform="translate(460,385)" d="m0 0h2l-1 6 18-1h35l10-1 7-1 8-1-2 6h-78l-1-2z" fill="#34BFF0"/>
<path transform="translate(872,23)" d="m0 0h6l-1 2-40 6-27 6-23 5-17 4v-2l24-7 26-6 21-4z" fill="#34BFF0"/>
<path transform="translate(838,596)" d="m0 0h1l2 15 5 16 5 10 8 9 10 7 7 3-4 1-15-8-10-10-6-12-5-21v-9z" fill="#AE651E"/>
<path transform="translate(1236,440)" d="m0 0 5 2 4 3v10l-15 45-5 12h-1l1-8 16-49 1-9-6-5z" fill="#AE651E"/>
<path transform="translate(1012,634)" d="m0 0 1 3-11 23-11 16-15 15-16 10-4 1v-2l16-10 12-11 7-8 11-17 9-19z" fill="#AE651E"/>
<path transform="translate(1828,591)" d="m0 0 5 2 7 6 9 12 5 11 3 12v20l-2 1-2-17-4-16-2-9-7-10-7-7z" fill="#AE651E"/>
<path transform="translate(1350,601)" d="m0 0 4 1-12 6-5 5-4 6-1 3v9l4 11 4 6 7 6 6 3-3 1-9-5-7-6-4-7-2-8v-9l5-10 9-8z" fill="#AE651E"/>
<path transform="translate(1425,586)" d="m0 0 2 3v14l-1 18-4 14-6 9-11 8-10 4v-2l11-6 10-9 5-10 2-9 1-20v-12z" fill="#31A7F3"/>
<path transform="translate(1657,623)" d="m0 0 3 4 5 17 8 41 3 14 1 10-2-4-6-26-10-45-3-7z" fill="#31A8F2"/>
<path transform="translate(1451,175)" d="m0 0h8l-1 2-22 5-30 8-9 2 1-3 26-8z" fill="#30A3F3"/>
<path transform="translate(1911,619)" d="m0 0v3l-5 11-1 4v23l3 13 5 9 5 6-5-2-4-5-5-10-3-16v-16l4-12z" fill="#AE651E"/>
<path transform="translate(1301,450)" d="m0 0 2 1-13 13-10 14-8 17-4 12h-2l1-9 7-16 10-16 6-7z" fill="#30A2F3"/>
<path transform="translate(866,492)" d="m0 0 2 1-10 8-8 10-6 13-3 16v7l1 4-4-1v-15l3-13 8-14 9-10z" fill="#AE651E"/>
<path transform="translate(668,183)" d="m0 0v3l-11 9-13 12-12 12h-2l2-5 18-18 11-9z" fill="#34C2F0"/>
<path transform="translate(323,489)" d="m0 0h1l2 16v32l-2 20-1 5h-1l1-31z" fill="#34C0F0"/>
<path transform="translate(1750,617)" d="m0 0 1 3-3 13v41l-2-3-2-13v-21l4-15z" fill="#31A7F2"/>
<path transform="translate(650,612)" d="m0 0h1v8l-7 16-8 10-7 6-7 4-3-1 4-3 11-8 6-8 5-8z" fill="#32B0F2"/>
<path transform="translate(325,549)" d="m0 0h1l-1 11-5 20-8 19-3 1 2-5 6-16 4-17h2l1-12z" fill="#31A8F2"/>
<path transform="translate(494,286)" d="m0 0 2 2-6 13-6 16-8 22-2-2 10-28z" fill="#34C0F0"/>
<path transform="translate(797,471)" d="m0 0 1 3-12 17-8 16h-2l1-6 10-17 9-12z" fill="#30A3F3"/>
<path transform="translate(1407,490)" d="m0 0 5 1 6 4 3 3 5 14v17l-6 4-6 2h-5l4-2 10-4 1-1v-11l-2-10-4-8-1-3-10-5z" fill="#31ABF2"/>
<path transform="translate(1422,630)" d="m0 0 1 2-5 10-7 6-12 7-4 1v-2l11-6 10-9z" fill="#30A3F3"/>
<path transform="translate(1668,669)" d="m0 0h2l4 19 3 16v5l-2-4-6-26z" fill="#31A7F3"/>
<path transform="translate(1351,490)" d="m0 0 3 1-11 7-9 14-4 7-1-4 7-12 8-9z" fill="#AE651E"/>
<path transform="translate(1699,647)" d="m0 0 1 4-8 29-3 2v-6h2l2-9z" fill="#32B2F2"/>
<path transform="translate(1631,655)" d="m0 0h1l-1 9-4 15-3 5h-1v-6l4-9z" fill="#32B3F1"/>
<path transform="translate(1657,623)" d="m0 0 3 4 4 13-1 4-2-1-4-15-1-4z" fill="#31ACF2"/>
<path transform="translate(650,612)" d="m0 0h1v8l-7 16-2 1 2-7z" fill="#31AAF2"/>
<path transform="translate(64,631)" d="m0 0 3 1 12 19-1 2-8-11-6-9z" fill="#30A2F3"/>
<path transform="translate(650,530)" d="m0 0h2l2 7v18h-1l-3-19z" fill="#32ADF2"/>
<path transform="translate(1407,490)" d="m0 0 5 1 6 4 3 3 4 10v2h-2l-4-9-2-5-10-5z" fill="#31A5F3"/>
<path transform="translate(322,477)" d="m0 0h2l2 12v7l-2-1v-6h-2z" fill="#30A1F3"/>
<path transform="translate(1284,469)" d="m0 0v3l-7 12-4 2 2-5 6-10z" fill="#31A4F3"/>
<path transform="translate(1410,185)" d="m0 0 4 1-1 2-13 4-3-1 1-2z" fill="#31A4F3"/>
<path transform="translate(1265,323)" d="m0 0 4 1 11 7v1l-7-1-8-6z" fill="#31A4F3"/>
<path transform="translate(323,489)" d="m0 0h1l2 16v7l-2-1-1-4z" fill="#34BBF1"/>
<path transform="translate(460,385)" d="m0 0h2l-1 6h12v2h-14l-1-2z" fill="#34C3F0"/>
<path transform="translate(84,383)" d="m0 0v3l-4 7-5 5-2 1 2-5z" fill="#30A4F3"/>
<path transform="translate(1392,191)" d="m0 0h4v2l-12 4h-3v-2z" fill="#31A5F3"/>
<path transform="translate(1272,680)" d="m0 0 5 4 5 5 4 6-4-2-7-7-3-4z" fill="#31A9F2"/>
<path transform="translate(1965,673)" d="m0 0 1 2-4 8-6 5-2-1 8-9z" fill="#31A5F3"/>
<path transform="translate(1408,646)" d="m0 0 2 1-5 5-10 4v-2l11-6z" fill="#31A6F3"/>
<path transform="translate(65,410)" d="m0 0 1 3-5 10-3 2 2-6z" fill="#30A4F3"/>
<path transform="translate(1470,172)" d="m0 0h12l-4 2-12 1z" fill="#30A1F3"/>
<path transform="translate(1047,123)" d="m0 0 10 2 3 4-10-3-3-1z" fill="#34B5F1"/>
</svg>
