<?xml version="1.0" encoding="UTF-8"?>
<svg version="1.1" viewBox="0 0 2048 841" width="375" height="154" xmlns="http://www.w3.org/2000/svg">
<path transform="translate(905,22)" d="m0 0 39 1 28 3 35 6 31 8 29 9 32 13 29 14 24 14 24 16 16 12 14 11 12 11 8 7 26 26 9 11 8 9 10 13 12 17 10 14 9-5 10-7 25-14 23-11 23-9 25-8 24-6 36-6 31-2h28l30 2 32 5 26 6 29 9 27 11 25 12 24 14 12 8 19 14 13 11 10 9 8 7 17 17 7 8 11 13 14 19 11 17 11 19 11 21v1l-31 1h-51l-5-3-7-10-10-14-9-11-11-12-7-8-15-14-14-11-13-10-19-12-24-13-26-11-21-7-25-6-31-5-15-1h-33l-21 2-29 5-29 8-19 7-24 11-18 10-14 9-14 10-16 13-14 10-11 4-9 1-10-2-10-5-9-9-12-21-9-16-14-21-14-19-9-10-7-8-12-13-16-15-11-9-14-11-17-12-21-13-20-11-29-13-35-12-32-8-32-5-25-2h-44l-28 3-36 7-25 7-23 8-30 13-26 14-19 12-17 12-16 13-11 9-28 28-9 11-12 15-14 20-11 18-14 26-11 25-12 35-4 15-3 2h-75l-2-1 2-10 6-24 12-36 10-25 12-25 12-22 13-21 12-17 13-17 11-13 9-11 30-30 8-7 17-14 12-9 17-12 21-13 18-10 19-10 28-12 24-9 31-9 32-7 36-5 12-1z" fill="#31B9ED"/>
<path transform="translate(196,328)" d="m0 0h48l23 3 23 6 13 5 16 8 13 8 11 9 14 12 10 11 14 21 8 16 7 20 5 18 4 23 2 25v16l-2 26-4 25-6 22-7 16-12 23-8 10-9 11-12 12-16 12-17 10-16 7-19 6-25 5-13 1h-40l-17-2-20-4-26-9-21-11-14-10-12-11-12-12-13-18-12-23-7-19-5-22-3-24-2-25 2-38 5-28 6-20 5-12 12-23 13-17 9-10 12-12 13-10 18-10 16-7 20-6 18-3zm15 65-20 4-13 5-14 8-13 11-9 11-7 11-7 15-5 20-4 29v31l4 26 4 16 7 16 6 11 8 10 9 9 12 9 12 7 16 5 8 2 9 1h18l18-4 12-4 15-8 14-11 11-13 6-10 7-15 6-22 3-21 1-23-1-20-4-26-5-16-7-16-7-11-11-12-10-8-14-8-16-6-14-3z" fill="#3B3A3A"/>
<path transform="translate(607,431)" d="m0 0h13l19 2 15 4 19 10 14 11 12 12 11 15 8 16 6 19 4 21 2 18v30l-2 18-5 23-6 16-9 17-9 12-18 18-10 7-16 8-15 5-13 2h-27l-17-4-15-6-11-7-14-11-6-7-1 126-1 1h-75l-1-369 1-1h69l1 1v33l17-17 10-7 14-8 17-6zm-20 55-13 4-9 5-10 8-9 13-5 11-4 15-2 15v24l4 27 5 15 6 11 7 9 11 9 12 6 10 3h13l12-4 11-6 10-9 7-10 6-16 4-18 1-11v-29l-2-16-4-15-8-16-9-10-8-7-12-6-7-2z" fill="#3A3A3A"/>
<path transform="translate(1368,431)" d="m0 0h25l30 2 22 5 16 7 12 8 9 8 7 11 5 15 3 17 1 15v129l2 20 4 18 6 16 2 4v3h-74l-2-6-5-20v-3l-8 7-12 9-15 9-12 5-15 4-8 1h-29l-20-4-13-5-14-9-13-13-7-11-7-18-2-13v-13l2-14 4-13 6-12 8-10 10-9 11-7 21-8 12-4 48-10 36-9 8-4 1-2v-13l-4-12-4-6-10-6-13-3-9-1h-13l-10 2-11 6-6 5-9 14-2 5-3 1-43-7-22-5 1-6 8-18 7-12 9-11 10-9 13-8 15-6 17-4 7-1zm55 153-19 5-36 8-17 5-11 7-6 7-2 5v12l7 14 7 7 12 6 4 1h13l12-3 12-5 11-7 7-8 5-12 2-12 1-29z" fill="#3A393A"/>
<path transform="translate(880,431)" d="m0 0h17l20 2 20 5 21 10 12 9 13 11 8 10 8 13 8 18 6 21 5 32 1 14v17l-2 2-177 1 1 12 4 14 5 12 8 10 10 8 13 6 9 2h10l12-3 8-4 9-8 8-16 2-6h11l32 5 24 4 9 3-9 19-9 15-13 15-12 10-15 9-16 6-19 5-9 1h-35l-15-2-18-4-17-7-14-8-10-8-9-9-11-15-9-17-7-21-4-22-1-9v-37l3-23 6-21 8-18 10-15 8-10 9-9 13-10 16-9 13-5 18-4zm9 54-12 3-10 5-10 9-7 9-6 13-3 15-1 12 2 1h100l3-1-3-21-6-16-6-9-6-7-14-9-8-3z" fill="#3A3939"/>
<path transform="translate(1194,431)" d="m0 0h13l13 2 15 5 12 8-1 8-19 57-1 2-6-1-11-5-13-4h-13l-14 7-5 4-7 11-5 13-2 10-3 33-1 54v73l-1 1h-75v-272h70l1 30 11-13 7-8 10-8 11-5z" fill="#3A393A"/>
<path transform="translate(1578,590)" d="m0 0h23l8 33 10 44 4 12 8-29 12-44 4-16h22l2 6 12 58 6 22 1 1 5-21 13-45 6-20 1-1h22l-1 7-16 52-12 40-7 20-4 6h-18l-3-2-10-45-8-40-1-4-6 29-10 41-5 19-4 2h-18l-3-1-7-24-16-57-9-34z" fill="#3A3939"/>
<path transform="translate(1883,546)" d="m0 0h22l1 1 1 52 9-8 12-6 6-1h11l10 2 14 7 9 8 7 11 5 15 2 13v19l-3 16-5 12-8 11-7 7-10 6-9 3-7 1h-12l-8-2-9-6-5-4-4-4 1 14-2 2h-20l-2-2v-166zm47 60-11 6-7 8-5 10-2 9v21l3 12 4 8 5 6 9 6 7 2h8l12-6 8-8 5-10 2-9v-26l-3-10-7-10-9-7-5-2z" fill="#3B3A3A"/>
<path transform="translate(1795,584)" d="m0 0h14l12 2 12 6 10 9 7 11 5 11 3 13 1 17-3 2h-89l3 13 7 13 8 7 8 4 4 1h10l10-3 9-6 4-5 3-7 11 1 12 3 1 4-7 14-9 10-12 7-11 3-9 1h-17l-16-4-10-6-9-8-6-10-5-12-2-9-1-13v-11l2-13 4-12 7-12 6-7 13-9 12-4zm5 21-10 2-11 6-7 7-4 6-1 7 5 1h63l1-2-4-9-4-6-8-7-10-4z" fill="#3B3939"/>
<path transform="translate(1768,273)" d="m0 0 8 6 11 11 9 7 8 7 4 2 1 2h3l5-2 11 13 13 18 12 19 12 21 7 15-31 1h-51l-5-3-7-10-10-14-9-11-11-12-7-8-15-14-3-2v-2l5 2 17 17 8 7 8 8 4 2v2l5 2 3 1 1-7-4-9 1-4h2l-2-13-1-5 5 5 1 5 6 1 4 1-2-5-3-3 1-12 4 1-2-5-6-7 6 2-8-8-4-11-5-10z" fill="#2994ED"/>
<path transform="translate(1934,584)" d="m0 0h11l10 2 14 7 9 8 7 11 5 15 2 13v19l-3 16-5 12-8 11-7 7-10 6-9 3-7 1h-12l-8-2-9-6-5-4-5-6-2 1-1-6 4 2 8 7 2-1v-11l6 1 4 3h16l10-5 5-2 5-3 4-7 4-10 1-8v-22l-4-13-4-6-9-8 3-1 5 1-2-4-9-6-5-2h-28l-7 2 6-8 12-6z" fill="#2D2D2F"/>
<path transform="translate(1762,667)" d="m0 0 4 4 7 11 6 5 12 6h16l10-3 9-6 4-5 3-7 11 1 12 3 1 4-7 14-9 10-12 7-11 3-9 1h-17l-16-4-4-2-9-11-9-12-4-10 1-3 4 4v2l4-1v-7z" fill="#2C2D2F"/>
<path transform="translate(1070,437)" d="m0 0h70v2l-5 1-1 3h-23l-24 6-6 5-4-1 1 6-2 1-1-3v8l1 5 1 6 1 38v32h-1l-1-9-1-1-1 169 4-1 10 2 53 1v2h-71z" fill="#2D2D2F"/>
<path transform="translate(1578,590)" d="m0 0h22l-2 4 2 11v8l-2 1 4 4 6 22 4 15-1 6-3 2 2 7-2 9-1 3 5 17 4 5v2h2v2h12l3-1 1 7-2 1h-18l-3-1-7-24-16-57-9-34z" fill="#2C2C2E"/>
<path transform="translate(1835,626)" d="m0 0 3 1 1 4 2 2v2l4 5h8l3 11v4h-80l-9-1 5-4 2-5-2-7h-2l-3-4 68-1z" fill="#2C2D2F"/>
<path transform="translate(1883,546)" d="m0 0h22l-2 5-1 21-1-2h-2v-2h-5v14l-3 9-3 1 1 34v17l-1 15 3-1v6l-3 11-1 17 2 9 4 4-1 2 5 2 2 2h3l1-11 2 1 1 13-2 2h-20l-2-2v-166z" fill="#2C2C2E"/>
<path transform="translate(460,437)" d="m0 0h3l1 5v364l-4 1-1-369z" fill="#2976BF"/>
<path transform="translate(276,334)" d="m0 0 7 1 18 6 17 8 14 9 11 9 14 12 10 11 14 21 8 16 7 20 5 18 4 23 2 25v16l-2 26-4 25-6 22-7 16-12 23-8 10-9 11-12 12-16 12-17 10-16 7-3-1 25-12 15-10 9-9 8-7 7-7 8-10 12-19 8-17 7-20h2l1-8 4-18 2-25v-35l-1-1-4-31-7-25-8-22-9-16-5-9-12-16-5-5-8-9-10-7v-2l-5-2-7-6-10-4-23-10-13-5z" fill="#C89148"/>
<path transform="translate(1795,584)" d="m0 0h14l12 2 2 1v2l5 2 8 6 5 6 3 9-1 3-4-3v-2h-2l-4-5-6-4-12-4h-11l-16 2-13 2-14 10-3 1v2h-2l-1 3h-2l-4 11-1 8v26l3 14 4 10 9 12 8 9h-3l-9-7-7-9-6-13-3-12-1-13v-11l2-13 4-12 7-12 6-7 13-9 12-4z" fill="#2C2E31"/>
<path transform="translate(640,434)" d="m0 0 11 2 19 9 12 9 10 9 7 7 11 15 8 16 6 19 4 21 2 18v30l-2 18-5 23-6 16-9 17-9 12-16 16-1-3 12-12 8-10 8-14 7-16 6-23 2-20v-40l-5-28-6-20-10-21-8-10-4-6-5-5-9-8-3-3-16-8-19-9z" fill="#CC9447"/>
<path transform="translate(79,388)" d="m0 0 1 3-7 10-12 22-8 18-4 13-4 20-2 26-1 14v12l2 37 2 12 3 13 7 20 7 16 6 11 10 14 9 11 7 7 4 5 4 3-1 3-10-9-13-13-13-18-12-23-7-19-5-22-3-24-2-25 2-38 5-28 6-20 5-12 12-23z" fill="#2986D8"/>
<path transform="translate(175,402)" d="m0 0 3 1-14 8-12 10-9 11-7 11-7 15-5 20-4 29v31l4 26 4 16 7 16 6 11 8 10 8 8 12 9 12 7 5 2-1 2-10-3-16-10v-2l-5-2-7-8-5-5-5-6-11-22-4-10-5-26-2-14v-31l6-34 1-5h2l1-9 4-8 4-10 11-16 10-10 13-8z" fill="#C68E43"/>
<path transform="translate(1469,451)" d="m0 0 5 3 8 7 7 11 5 15 3 17 1 15v129l2 20 4 18 6 16 2 4v3h-3l-7-16-5-15-3-27-1-27v-25l1-55v-24l-4-30-6-18-7-9-4-6-4-4z" fill="#9D622F"/>
<path transform="translate(841,439)" d="m0 0h2v2l-9 4-12 7-12 9-8 7-13 18-7 11-9 23-3 12-2 21-1 5v30l3 27 7 24 9 19 7 10 8 10 7 8 6 4 8 5 26 13-3 1-17-7-14-8-10-8-9-9-11-15-9-17-7-21-4-22-1-9v-37l3-23 6-21 8-18 10-15 8-10 9-9 13-10 16-9z" fill="#2C98E1"/>
<path transform="translate(259,399)" d="m0 0 6 1 10 5 7 3 10 7 10 10 6 9 8 17 6 20 4 18 1 7 1 23v14l-1 18-4 16-4 15-6 15-6 10-10 13-12 11h-2l-1 3-10 5-6 1 4-3 11-7 11-9 12-15 10-21 6-22 3-21 1-23-1-20-4-26-5-16-7-16-7-11-11-12-12-9-16-8z" fill="#2A8BD9"/>
<path transform="translate(880,431)" d="m0 0h17l18 2 6 2v2l-12-1-13-1h-21l-20 3-8 4-5 1-2 5-17 17-9 6-18 13-5 5-7 8-1 2h-2l2-6 13-18 8-10 11-9 15-10 10-5h3v-3l18-5z" fill="#2B2C2F"/>
<path transform="translate(1176,502)" d="m0 0 4 2-11 6-5 4-7 11-5 13-2 10-3 33-1 54v73l-4 1-1-9v-97l1-22 3-29 4-18 7-14 6-8 9-8z" fill="#A16630"/>
<path transform="translate(1070,437)" d="m0 0 2 1 1 10v257l-1 4h-2z" fill="#2C8ED2"/>
<path transform="translate(915,433)" d="m0 0 15 3 14 5 17 9 14 11 8 7 8 10 8 13 8 18 6 21 5 32 1 14v17l-3 2-1-3-1-24-4-28-7-26-6-16-5-10-3-4-3-5-4-6-5-4v-2l-4-2-1-3-4-2-7-7-16-8-24-9-6-2z" fill="#9D622F"/>
<path transform="translate(578,487)" d="m0 0h5l-18 9-9 7-9 13-5 11-4 15-2 15v24l4 27 5 15 6 11 7 9 13 10 15 6-1 2-7-1-15-8-10-9-7-8-7-14-4-15-3-19-1-10v-19l5-28 8-16 8-12 8-7 11-6z" fill="#CB9346"/>
<path transform="translate(136,343)" d="m0 0h6v1l-6 2-14 10h-2l-2 4-8 10-16 17-4 4h-2l-1 3h-2l-2 4-7 8h-2l-2 4-6 8-2 3h-2l2-6 10-17 5-7 3-7 13-13 12-11 14-9z" fill="#2B2E32"/>
<path transform="translate(276,334)" d="m0 0 7 1 18 6 17 8 14 9 11 9 14 12 10 11 14 21 8 16 7 20 3 11h-2l5 23 1 12v11h-1l-4-31-7-25-8-22-9-16-5-9-12-16-5-5-8-9-10-7v-2l-5-2-7-6-10-4-23-10-13-5z" fill="#D49E4E"/>
<path transform="translate(1075,474)" d="m0 0 2 2 1 38v32h-1l-1-9-1-1-1 169 4-1 10 2 53 1v2h-69l1-234z" fill="#2C2C2E"/>
<path transform="translate(620,492)" d="m0 0 5 1 10 7 6 7 9 17 4 14 2 12 1 16v18l-2 21-5 17-4 10-9 12-6 7-10 5-4-1 12-7 7-7 7-11 7-21 2-11 1-11v-29l-2-16-4-15-8-16-9-10-7-6z" fill="#2B8FD6"/>
<path transform="translate(839,550)" d="m0 0 3 1 103 1-1 2-19 3-14 1h-48l-21-3-3-2z" fill="#2C2C2E"/>
<path transform="translate(533,679)" d="m0 0 3 1v126l-3 1-1-16v-111z" fill="#C68E45"/>
<path transform="translate(1309,559)" d="m0 0 2 1-17 9-10 7-9 9-7 12-6 16-1 7v22l2 14 5 15 7 11 12 14 22 12 3 2-6-1-14-7-9-7-11-11-7-11-7-18-2-13v-13l2-14 4-13 6-12 8-10 10-9 11-7z" fill="#2968AB"/>
<path transform="translate(1883,546)" d="m0 0 2 4v163h-3v-166z" fill="#2E98D3"/>
<path transform="translate(841,439)" d="m0 0h2v2l-9 4-12 7-12 9-8 7-13 18-7 11-9 23-3 12-2 21-1 5v30l3 27-1 4-2-10-2-20v-38l-1-3 2-15 6-21 8-18 10-15 8-10 9-9 13-10 16-9z" fill="#2A79C0"/>
<path transform="translate(1767,594)" d="m0 0 2 1-9 10-6 10-5 13-1 8v26l3 14 4 10 9 12 8 9h-3l-9-7-7-9-6-13-3-12-1-13v-11l2-13 4-12 7-12 6-7z" fill="#2989DB"/>
<path transform="translate(1950,585)" d="m0 0 10 3 10 6 8 7 7 11 5 15 2 13v19l-3 16-5 12-8 11-7 7v-3l9-11 6-12 3-14v-31l-3-14-4-10-6-9-9-8-12-5-3-1z" fill="#AC7337"/>
<path transform="translate(1494,496)" d="m0 0 2 1 2 22v129l2 24-2-3-2-8-1-11v-136z" fill="#D39B48"/>
<path transform="translate(464,608)" d="m0 0h1l1 196h63l2-6h1l1 9h-70z" fill="#2C2C2E"/>
<path transform="translate(1736,590)" d="m0 0 1 4-17 55-12 40-7 20-2 2 1-8 6-22 9-28 9-29 7-24z" fill="#C68F48"/>
<path transform="translate(640,434)" d="m0 0 11 2 19 9 12 9 10 9 7 7 6 8 1 5 4 6 6 13 7 23 2 15v6h-1l-5-25-7-21-9-17-7-9-4-6-5-5-9-8-3-3-16-8-19-9z" fill="#A76C33"/>
<path transform="translate(1308,561)" d="m0 0m-3 1h3v2l-5 1-1 6-18 14-9 10-6 8-3 1-1-2 5-10 6-9 10-10 13-8z" fill="#2C2C2E"/>
<path transform="translate(1929,605)" d="m0 0h6v1l-9 3-8 5-6 8-4 8-2 9v21l3 12 4 8 4 5 9 6 7 2v1h-8l-11-7-6-7-6-16-1-5v-15l1-6h2l1-9 4-8 6-8 9-6z" fill="#D39D50"/>
<path transform="translate(397,458)" d="m0 0h2l4 17 3 23 1 15v16l-2 26-4 25-3 12-2-1 1-8 4-18 2-25v-35l-2-24-4-18z" fill="#D6A357"/>
<path transform="translate(175,402)" d="m0 0 3 1-14 8-12 10-9 11-7 11-7 15-5 20-3 20-2 1v-10l5-28 4-9 5-12 11-16 10-10 13-8z" fill="#C99349"/>
<path transform="translate(836,595)" d="m0 0 3 1 4 20 6 16 8 11 8 7 20 10-9-1-16-8-6-4-4-6-7-10-7-21-1-4v-10z" fill="#A26731"/>
<path transform="translate(915,433)" d="m0 0 15 3 14 5 17 9 14 11 8 7 8 10 3 4 2 8 4 8-1 4-5-10-3-5-5-8-4-6-5-4v-2l-4-2-1-3-4-2-7-7-16-8-24-9-6-2z" fill="#A86D33"/>
<path transform="translate(939,623)" d="m0 0h1l-1 10-7 13-2 2-2 5-9 5 1 4-7 2v-2l-3-1-12 6h-9l-7-3-2-3 10-1h10l12-3 8-4 9-8 8-16z" fill="#2C2F34"/>
<path transform="translate(259,399)" d="m0 0 6 1 10 5 7 3 10 7 10 10 6 9 8 17 6 20-1 3v-2h-2l-6-18-8-16-6-9-9-10-10-8-14-8-7-3z" fill="#298CE1"/>
<path transform="translate(1666,591)" d="m0 0h4l13 63 4 15-1 9-2-2-5-21-4-20-7-32z" fill="#9D622F"/>
<path transform="translate(1578,591)" d="m0 0 2 1 14 51 14 49 4 19-1 3-7-24-16-57-9-34z" fill="#2983D1"/>
<path transform="translate(1715,590)" d="m0 0h2l-2 11-7 24-12 39-6 21-2 1-2-11 2-2 2 4 5-21 13-45 6-20z" fill="#2B91DC"/>
<path transform="translate(79,388)" d="m0 0 1 3-7 10-12 22-8 18-4 13-4 20-1 2h-2l-1 4 1-11 5-21 6-17 11-22 9-13z" fill="#298AD9"/>
<path transform="translate(1600,590)" d="m0 0 2 3 9 39 8 35 2 7v8l-3-4-3-13-4-17-4-14-7-32-1-11z" fill="#A96F36"/>
<path transform="translate(724,606)" d="m0 0h1l1 11-5 19-8 18-7 12-8 10-15 15-1-3 12-12 8-10 8-14 7-16 6-23z" fill="#C58D43"/>
<path transform="translate(876,486)" d="m0 0 4 1-13 7-10 9-7 10-5 11-3 15-1 9-4 1v-7l4-19 7-14 7-10 9-8 5-3z" fill="#C38A42"/>
<path transform="translate(1368,431)" d="m0 0h25l20 1 6 3v1l-22-1h-28l-4 2h-12l-18 1 3-2h8v-3l5-1z" fill="#2E2F31"/>
<path transform="translate(276,334)" d="m0 0 7 1 18 6 17 8 14 9 11 9 12 10 3 6 3 3 9 13-1 2-12-16-5-5-8-9-10-7v-2l-5-2-7-6-10-4-23-10-13-5z" fill="#A46932"/>
<path transform="translate(1647,590)" d="m0 0h2l-1 10-8 30-10 37-5 18-1 2h-2l-1-11 2 3 8-29 12-44z" fill="#2A8AD3"/>
<path transform="translate(80,650)" d="m0 0 4 1v2l4 1 11 8 6 8-1 3 6 4 10 7 6 6-7-2-6-5-7-2-3-2-2-5-6-5-7-8-8-9z" fill="#2C2D30"/>
<path transform="translate(1348,602)" d="m0 0 3 1-11 7-6 8-1 3v12l7 14 8 7 10 5v1h-6l-13-8-7-9-4-7-1-4v-7l5-10 7-8h3v-2z" fill="#9F6430"/>
<path transform="translate(122,467)" d="m0 0h1l-1 11-2 11v18l-1 42 2 12v7h-1l-5-31v-31l6-34z" fill="#A16630"/>
<path transform="translate(1947,607)" d="m0 0 6 1 12 11 5 12 1 5v22l-2 11-5 11-3 4-5 3h-3l7-7 5-10 2-9v-26l-3-10-7-10-8-6z" fill="#2964A5"/>
<path transform="translate(1654,632)" d="m0 0 1 3-9 39-6 24-4 15-2 1 1-11 6-26 3-12 4-15 3-14z" fill="#A66B32"/>
<path transform="translate(1823,588)" d="m0 0 5 1 9 6 7 7 8 14 4 11 2 9 1 17-2 1-6-27-8-20-10-12-10-6z" fill="#A36831"/>
<path transform="translate(1439,701)" d="m0 0 4 2 11 2h52l3 2v2h-69z" fill="#2C2C2E"/>
<path transform="translate(1010,633)" d="m0 0 5 2-9 19-9 15-13 15-12 10-8 5-2-1 16-12 7-8 10-13 7-11 4-8z" fill="#C3893F"/>
<path transform="translate(1649,590)" d="m0 0h20l-3 1 1 2v8l-6-2h-6v2l-4 4h-2l-1 5-3 5-1-4 4-16z" fill="#2C2C2E"/>
<path transform="translate(578,487)" d="m0 0h5l-18 9-9 7-9 13-5 11-4 15-2 15-2 2v-11l4-23 9-16 7-9 9-7 8-4z" fill="#CE984F"/>
<path transform="translate(42,476)" d="m0 0h2l-2 38v12l1 21v16h-1l-3-29-1-32 2-21z" fill="#298BDE"/>
<path transform="translate(1244,445)" d="m0 0 3 1-1 8-19 57-2 2-3-3 3-5 14-43 2-6h2z" fill="#C88F42"/>
<path transform="translate(1885,691)" d="m0 0h2l2 9 4 4-1 2 5 2 2 2h3l1-11 2 1 1 13-2 2h-20z" fill="#2C2D30"/>
<path transform="translate(1469,451)" d="m0 0 5 3 8 7 7 11 5 15 1 9v15l-2-1-3-20-6-18-7-9-4-6-4-4z" fill="#A56A33"/>
<path transform="translate(782,652)" d="m0 0 3 4 10 15 12 14 8 6 16 9 17 8-3 1-17-7-14-8-10-8-9-9-11-15-2-3z" fill="#2968AA"/>
<path transform="translate(1660,633)" d="m0 0 3 4 7 31 6 29 1 7v9h-1l-10-45-6-30z" fill="#2969AC"/>
<path transform="translate(136,604)" d="m0 0 3 3 3 1 7 9 8 8 12 9 12 7 5 2-1 2-10-3-16-10v-2l-5-2-7-8-5-5-5-6z" fill="#A56B32"/>
<path transform="translate(61,622)" d="m0 0 3 4 8 14 11 14 9 10 7 8 4 3-1 3-10-9-13-13-13-18-5-9z" fill="#2A7BC1"/>
<path transform="translate(1717,590)" d="m0 0h19l-3 7h-2l-1 3-10 2-6 2 2-11z" fill="#2D2D2F"/>
<path transform="translate(371,402)" d="m0 0 5 5 2 5 5 7 6 14 8 24 5 24 1 12v11h-1l-4-31-7-25-8-22-9-16-3-5z" fill="#9D622F"/>
<path transform="translate(629,651)" d="m0 0 2 1-5 4-9 2-1 3-9 3-7 4h-10l-4-4 3-3 14-1 12-4 8-2z" fill="#2D2F33"/>
<path transform="translate(880,431)" d="m0 0h17l18 2 6 2v2l-12-1-13-1h-21l-15 2h-5l2-3 10-2z" fill="#2E3034"/>
<path transform="translate(914,491)" d="m0 0 9 3 10 9 7 12 4 14 3 17-1 5-2-2-3-19-6-16-6-9-5-6-10-7z" fill="#298ADB"/>
<path transform="translate(1176,502)" d="m0 0 4 2-11 6-5 4-7 11-5 13-2 10-3 27h-1v-18l2-12 4-18 5-8 4-6 7-7z" fill="#D6A356"/>
<path transform="translate(1301,450)" d="m0 0 1 3-10 8-8 10-8 14-5 11-3 10 2 2-6-1 1-6 8-18 7-12 9-11 10-9z" fill="#2989D9"/>
<path transform="translate(1425,587)" d="m0 0h1v35l-3 9-5 10-7 7-8 5-4-1 11-7 6-7 5-12 2-12 1-26z" fill="#2C8ECF"/>
<path transform="translate(654,598)" d="m0 0h1v7l-5 17-4 10-9 12-6 7-10 5-4-1 12-7 7-7 7-11 9-27z" fill="#2B91DD"/>
<path transform="translate(1867,389)" d="m0 0h4l1 3-31 1h-51l-3-1v-2h61z" fill="#2977C2"/>
<path transform="translate(1318,442)" d="m0 0 2 1-5 4-8 4-6 5-5 8-11 10h-2l-2 4-2 1 2-5 9-12 10-9h2v-4l5-3 9-3z" fill="#2C2E33"/>
<path transform="translate(1264,661)" d="m0 0h2l6 12 7 11 4 5 12 9 16 8 1 2 3 1-3 1-16-8-10-6-9-10-9-13-4-10z" fill="#2C2C2E"/>
<path transform="translate(1455,447)" d="m0 0 7 1 7 3 2 5 4 2 4 6 3 4 2 7-3-1v-2l-3-1-3-6-5-3-2-3-3-1-7-8z" fill="#2F2F30"/>
<path transform="translate(311,597)" d="m0 0 1 2-7 11-9 11-11 10h-2l-1 3-10 5-6 1 4-3 11-7 11-9 12-15 4-8z" fill="#2968AB"/>
<path transform="translate(290,625)" d="m0 0 2 1-6 6 2 2-7 2-4 3-16 8-13 3-7-1 2-2 17-5 9-3 10-4 10-9z" fill="#2C3139"/>
<path transform="translate(1676,698)" d="m0 0 2 3 3 6v2l8 1 6-3 3-3 1 1v8l-2 2h-18l-2-1z" fill="#2E2D2F"/>
<path transform="translate(459,389)" d="m0 0 3 1 39 1h37l-2 2h-75l-2-1z" fill="#2994ED"/>
<path transform="translate(694,469)" d="m0 0 5 4 2 3 4 2 1 5 4 6 6 13 7 23 2 15v6h-1l-5-25-7-21-9-17-7-9z" fill="#9D622F"/>
<path transform="translate(1848,675)" d="m0 0 8 1 1 4-7 14-9 10-8 5-2-1 16-16 3-5v-10z" fill="#A96E34"/>
<path transform="translate(541,623)" d="m0 0 3 3 6 10 10 9 13 9 13 5-1 2-7-1-15-8-10-9-7-8-5-9z" fill="#AB7136"/>
<path transform="translate(1747,662)" d="m0 0h1l3 14 4 10 9 12 8 9h-3l-9-7-7-9-5-10z" fill="#2A6BAD"/>
<path transform="translate(1496,667)" d="m0 0h2l3 7 6 21 5 11v3h-3l-7-16-5-15z" fill="#A96F34"/>
<path transform="translate(1796,602)" d="m0 0h11l9 3 5 4 7 4 6 9 2 6-1 4-4-9-4-6-7-6-10-4-10-1h-9l3-3z" fill="#2D3035"/>
<path transform="translate(302,427)" d="m0 0 5 5 9 19 6 20-1 3v-2h-2l-6-18-8-16-3-9z" fill="#2989D9"/>
<path transform="translate(463,438)" d="m0 0 33 1-1 2-9 1-12 4-5-1-6-3z" fill="#2C2C2E"/>
<path transform="translate(196,328)" d="m0 0h48l17 2 1 2h-9l-7-1h-52l-2-2z" fill="#2F2E30"/>
<path transform="translate(1263,665)" d="m0 0 3 1 6 12 9 11 6 7 22 12 3 2-6-1-14-7-9-7-11-11-7-11-2-5z" fill="#2968AA"/>
<path transform="translate(1309,559)" d="m0 0 2 1-17 9-10 7-9 9-7 12-3 7h-1v-7l7-11 9-10 12-9 12-6z" fill="#2A79C1"/>
<path transform="translate(1703,635)" d="m0 0 1 3-12 40-3 8-2-3-1-8 2-2 2 4 5-21 6-19z" fill="#2A8AD6"/>
<path transform="translate(994,484)" d="m0 0 4 5 8 17 6 20 2 12-3-3-6-21-6-16-5-10z" fill="#D39A47"/>
<path transform="translate(565,442)" d="m0 0 2 1-10 7-5 6-5 2-2 5-9 8h-2l-2 4-1-2 4-7 12-12 10-7z" fill="#2B4056"/>
<path transform="translate(1578,591)" d="m0 0 2 1 14 51 1 3v8l-2-3-12-44-3-13z" fill="#2B8DD7"/>
<path transform="translate(1429,677)" d="m0 0 1 2-7 8-12 9-15 9-9 4-3-1 16-8 8-6 10-9z" fill="#AD7438"/>
<path transform="translate(1180,433)" d="m0 0 3 1-15 8-12 11-7 9-6 9-4-1v-6l2 3 11-13 7-8 10-8z" fill="#296FB6"/>
<path transform="translate(1736,590)" d="m0 0 1 4-12 39h-3l2-9 7-24z" fill="#A36831"/>
<path transform="translate(1902,638)" d="m0 0h1v20l5 17 5 5 4 5 9 6 7 2v1h-8l-11-7-6-7-6-16-1-5v-15z" fill="#9D622F"/>
<path transform="translate(1976,640)" d="m0 0 4 2 1 11-3 6-4-2-2-4v-7z" fill="#3B3A3A"/>
<path transform="translate(1666,591)" d="m0 0h4l10 49-1 4-9-36v-5h-2z" fill="#CD9647"/>
<path transform="translate(1904,547)" d="m0 0h2v51h-2l-1-30v-19z" fill="#B37938"/>
<path transform="translate(537,527)" d="m0 0 1 4-3 17v17l-2 22h-1l-1-10v-19l5-28z" fill="#9D622F"/>
<path transform="translate(1014,541)" d="m0 0h1l3 21 1 14v17l-2 1-1-3-1-27-1-6z" fill="#D8A65D"/>
<path transform="translate(1375,660)" d="m0 0h6v2l-5 1v2l-4 2h-9l-6-3-1-3z" fill="#2D2D2F"/>
<path transform="translate(1764,656)" d="m0 0 3 1 4 13 6 11 8 7 9 5-3 1-10-6-11-12-5-10-2-9z" fill="#A96E34"/>
<path transform="translate(1598,592)" d="m0 0 2 4 5 24 4 17-1 4-3-7-3-12v-4l-4-2-1-3h3l-3-16z" fill="#3B3A3A"/>
<path transform="translate(1335,551)" d="m0 0h5l-3 3-17 4v2h2v2l-3 1h-11l4-5 18-6z" fill="#2C323A"/>
<path transform="translate(1409,491)" d="m0 0 5 1 7 6 4 9 1 6v15l-4 4-5 1 5-4 1-2v-13l-4-12-4-6-6-4z" fill="#2A82CB"/>
<path transform="translate(38,513)" d="m0 0h1l1 21 2 16v13h2l1 14-2 1-3-18-3-35z" fill="#2C9FEA"/>
<path transform="translate(322,561)" d="m0 0h1l-1 10-5 16-4 10-4 1 2-6 5-13 4-15z" fill="#2C97DB"/>
<path transform="translate(404,540)" d="m0 0h1v15l-4 25-3 12-2-1 1-8 4-18 2-24z" fill="#D6A154"/>
<path transform="translate(41,500)" d="m0 0h1v26l1 21v16h-1l-3-29v-16z" fill="#2A62A1"/>
<path transform="translate(344,671)" d="m0 0 2 1-8 9-15 10-17 9-8 3-3-1 25-12 15-10z" fill="#AD7337"/>
<path transform="translate(369,647)" d="m0 0 2 1-8 9-7 8-9 9-5 4-2-1 15-16 7-8z" fill="#CB9347"/>
<path transform="translate(841,439)" d="m0 0h2v2l-9 4-12 7-12 9-8 7-5 5 1-4 9-9 13-10 16-9z" fill="#2967A9"/>
<path transform="translate(79,388)" d="m0 0 1 3-7 10-12 22h-3l2-6 9-16z" fill="#296AAD"/>
<path transform="translate(1430,677)" d="m0 0h3l4 15 4 16h-4l-6-25v-3l-2-1z" fill="#2984D4"/>
<path transform="translate(276,334)" d="m0 0 7 1 18 6 12 6 1 3-6-2-27-11-5-2z" fill="#A26731"/>
<path transform="translate(1968,641)" d="m0 0h1v28l-5 11-3 4-5 3h-3l7-7 5-10 2-9z" fill="#2A88D6"/>
<path transform="translate(1668,675)" d="m0 0 4 2 4 20 1 7v9h-1l-8-36z" fill="#2A87D5"/>
<path transform="translate(1767,594)" d="m0 0 2 1-9 10-6 10-5 13-2-3 1-6 6-11 8-10z" fill="#2A79C0"/>
<path transform="translate(1356,487)" d="m0 0v3l-11 7-8 11-3 5-2 5-2 1 1-7 5-8 4-6 4-4h3v-2z" fill="#C9934B"/>
<path transform="translate(724,606)" d="m0 0h1l1 11-5 19-2 3-3 1 3-11 4-16z" fill="#C68E43"/>
<path transform="translate(620,492)" d="m0 0 5 1 10 7 6 7 3 5v2l-4-1-6-8-8-8-6-4z" fill="#296AAD"/>
<path transform="translate(1646,665)" d="m0 0h1l-1 9-6 24-4 15-2 1 1-11 1-4h2l2-13z" fill="#D5A051"/>
<path transform="translate(1265,648)" d="m0 0 4 5 1 7 6 9 5 10-5-1-5-9-5-10z" fill="#2C2C2E"/>
<path transform="translate(836,595)" d="m0 0 3 1 1 13 1 8 1 7-2-1-5-17v-10z" fill="#A26731"/>
<path transform="translate(1344,433)" d="m0 0h2v3l-11 2-3 1-1 3 2 2-5-1-1-2-7 1-8 4-3-1 10-5 16-5z" fill="#2A4B6C"/>
<path transform="translate(939,623)" d="m0 0h1l-1 10-7 13-5 6-7 4h-2v-2l8-6 6-8 5-11z" fill="#2A7FC8"/>
<path transform="translate(914,491)" d="m0 0 9 3 10 9 5 8-1 3h-2l-6-9-5-6-10-7z" fill="#2A6AAD"/>
<path transform="translate(940,623)" d="m0 0h10l4 3-2 2-6 2-4 2-3 3-1-2z" fill="#2C2D30"/>
<path transform="translate(1330,632)" d="m0 0 3 1 7 14 8 7 10 5v1h-6l-7-4-9-11-3-3-3-5z" fill="#D49D4C"/>
<path transform="translate(528,437)" d="m0 0 2 1v28h-3v-27z" fill="#BF863D"/>
<path transform="translate(114,355)" d="m0 0 2 1-15 14-10 8-5 6-3-1 12-12 12-11z" fill="#2971B7"/>
<path transform="translate(915,433)" d="m0 0 15 3 14 5 8 4v2l-9-3-20-7-8-3z" fill="#9D6430"/>
<path transform="translate(147,699)" d="m0 0 9 4 9 2 11 4v1h-7l-17-5-8-3z" fill="#2C343E"/>
<path transform="translate(989,673)" d="m0 0 2 3-9 10-13 10-5 3-2-1 16-12 7-8z" fill="#A56A32"/>
<path transform="translate(679,452)" d="m0 0 8 6 12 12 4 5v2l-4-2-4-5-6-4-7-8-3-4z" fill="#B27A3E"/>
<path transform="translate(1137,439)" d="m0 0h3v25h-3l-1-24z" fill="#9D622F"/>
<path transform="translate(1713,663)" d="m0 0 1 2-7 21-3 11-2 10-3 4 1-8 6-22 5-15z" fill="#A36831"/>
<path transform="translate(109,681)" d="m0 0 5 2 7 5 12 6 6 4 5 2-3 1-17-8-16-10z" fill="#296AAD"/>
<path transform="translate(126,461)" d="m0 0 1 4-4 19-2 14-2 1v-10l5-25z" fill="#D7A458"/>
<path transform="translate(1421,628)" d="m0 0 2 3-5 10-7 7-8 5-4-1 11-7 6-7z" fill="#296AAE"/>
<path transform="translate(703,664)" d="m0 0 2 1-2 5-9 10-11 11-1-3 12-12 8-10z" fill="#C38A42"/>
<path transform="translate(1440,437)" d="m0 0 10 3 16 8 3 3-4-1-23-9z" fill="#A16731"/>
<path transform="translate(1424,627)" d="m0 0 2 2v6l-6 8-3 1-2 4-4-1 7-7z" fill="#2C2C2E"/>
<path transform="translate(777,500)" d="m0 0h1v8l-5 12-3 12h-1v-11l7-19z" fill="#2989D9"/>
<path transform="translate(344,369)" d="m0 0 4 2 7 6 3 6 3 3 9 13-1 2-12-16-5-5-8-9z" fill="#B0783B"/>
<path transform="translate(1662,635)" d="m0 0 5 5 2 12 2 8-3 4-6-27z" fill="#2C2C2E"/>
<path transform="translate(928,650)" d="m0 0v3l-9 5 1 4-7 2v-2l-7-2 4-2 8-3 6-2z" fill="#2B3138"/>
<path transform="translate(259,399)" d="m0 0 6 1 10 5 7 3 10 7 1 2-9-3-14-9-11-5z" fill="#2A71B4"/>
<path transform="translate(1348,602)" d="m0 0 3 1-11 7-6 8-2 10-3-4 1-6 7-9 2-2h3v-2z" fill="#C78E43"/>
<path transform="translate(1602,681)" d="m0 0h3l6 24 1 9-2-2-7-25z" fill="#2A8BD8"/>
<path transform="translate(1681,650)" d="m0 0 2 4 4 15-1 9-2-2-2-7z" fill="#C08740"/>
<path transform="translate(864,439)" d="m0 0 8 1v3l-10 5-8 2 5-5 3-2z" fill="#2C2C2E"/>
<path transform="translate(983,474)" d="m0 0 4 2 4 5 3 1 2 8 4 8-1 4-5-10-3-5-5-8z" fill="#9D622F"/>
<path transform="translate(1301,450)" d="m0 0 1 3-10 8-8 10-3 3 1-5 7-9 10-9z" fill="#2A69AB"/>
<path transform="translate(1647,590)" d="m0 0h2l-1 10-4 15-3 1 2-10z" fill="#2A8EDA"/>
<path transform="translate(1950,585)" d="m0 0 10 3 10 6 8 7 3 4-1 2-12-12-12-6-6-2z" fill="#BA823F"/>
<path transform="translate(1263,600)" d="m0 0h1v7l-2 6h-2l-1 15-2 1v-10l4-15z" fill="#2A99ED"/>
<path transform="translate(1846,693)" d="m0 0h1v5l-9 8-5 3-2-1z" fill="#A16630"/>
<path transform="translate(840,608)" d="m0 0h1l4 14 5 12v3l-3-3-5-10-3-10v-5z" fill="#D59E4F"/>
<path transform="translate(1578,591)" d="m0 0 2 1 6 22v8l-2-3-6-25z" fill="#2B8ED4"/>
<path transform="translate(1708,616)" d="m0 0 2 1-4 14-3 5-2 1 4-16z" fill="#2A8CD9"/>
<path transform="translate(1816,608)" d="m0 0 5 1 7 4 6 9 2 6-1 4-4-9-4-6-7-6z" fill="#2971B6"/>
<path transform="translate(1785,607)" d="m0 0h5l-4 3-9 6-7 8v-3l3-5 5-6z" fill="#A97037"/>
<path transform="translate(1176,502)" d="m0 0 4 2-11 6-9 7v-3l8-8z" fill="#B57B39"/>
<path transform="translate(1736,590)" d="m0 0 1 4-9 29h-1v-6l6-19 2-7z" fill="#D29C4E"/>
<path transform="translate(1213,432)" d="m0 0 10 2 12 4 5 4-9-2-17-6z" fill="#A16630"/>
<path transform="translate(167,635)" d="m0 0 6 1 11 6 2 2-3 1-10-4-6-4z" fill="#A06530"/>
<path transform="translate(1151,455)" d="m0 0 2 1-9 14-3 1-2-1v-6l2 3z" fill="#2971B8"/>
<path transform="translate(1694,665)" d="m0 0 1 3-5 17-2 1-2-11 2-2 2 4 2-10h2z" fill="#297BC4"/>
<path transform="translate(1884,686)" d="m0 0h1v27h-3v-14l1-1z" fill="#2C88C7"/>
<path transform="translate(1615,661)" d="m0 0h2l4 13v8l-3-4-3-13z" fill="#B37838"/>
<path transform="translate(1641,616)" d="m0 0h2l-2 11-3 11-2-3 1-7 3-10z" fill="#2982D1"/>
<path transform="translate(1935,602)" d="m0 0 10 1 5 2v2l-15-1-3-3z" fill="#2D3137"/>
<path transform="translate(1976,643)" d="m0 0h2l1 3v9l-3 1v-2h-2v-8z" fill="#2C2C2E"/>
<path transform="translate(1626,669)" d="m0 0h2l-1 8-3 10h-2l-1-11 2 3z" fill="#2982D0"/>
<path transform="translate(1e3 659)" d="m0 0 1 2-9 13-3 1 1-5 6-8z" fill="#CC9549"/>
<path transform="translate(1912,680)" d="m0 0 7 6 7 5 7 2v1h-8l-10-6-3-5z" fill="#B48141"/>
<path transform="translate(45,459)" d="m0 0h1v11l-2 6h-2l-1 4 1-11 2-9z" fill="#2FABE5"/>
<path transform="translate(1867,389)" d="m0 0h4l1 3h-24l1-2z" fill="#2963A2"/>
<path transform="translate(1309,559)" d="m0 0 2 1-17 9-6 4-3-1 9-6 10-5z" fill="#2968AA"/>
<path transform="translate(1403,652)" d="m0 0 2 1-14 7h-5l1-3 10-4z" fill="#2C3641"/>
<path transform="translate(943,529)" d="m0 0 2 4 2 16-2 2-2-9-1-12z" fill="#2B8DD6"/>
<path transform="translate(302,427)" d="m0 0 5 5 4 8-1 2-3-1-4-7z" fill="#2967A9"/>
<path transform="translate(632,645)" d="m0 0 3 1-4 5-10 5-4-1 12-7z" fill="#296BAF"/>
<path transform="translate(642,514)" d="m0 0h3l5 10v6h-2l-6-14z" fill="#2989D9"/>
<path transform="translate(654,598)" d="m0 0h1v7l-3 11-3-2 2-10 2-2z" fill="#2985D5"/>
<path transform="translate(1269,494)" d="m0 0h1v6l-2 6 2 2-6-1 1-6 3-6z" fill="#2986D5"/>
<path transform="translate(552,693)" d="m0 0 5 2 8 5 10 6-3 1-14-8-6-5z" fill="#2A74B9"/>
<path transform="translate(61,622)" d="m0 0 3 4 6 10-1 2-4-2-4-7z" fill="#2966A7"/>
<path transform="translate(1981,686)" d="m0 0 3 1-8 11-7 7v-3l9-11z" fill="#C5904F"/>
<path transform="translate(1436,692)" d="m0 0h1l4 16h-4l-2-9z" fill="#2966A8"/>
<path transform="translate(1649,650)" d="m0 0h1v7l-2 8h-3l1-8z" fill="#A86D33"/>
<path transform="translate(1929,605)" d="m0 0h6v1l-9 3-8 5-5 4v-3l9-7z" fill="#C28B46"/>
<path transform="translate(765,589)" d="m0 0h1l2 20v7l-2-2-2-14z" fill="#2994ED"/>
<path transform="translate(816,453)" d="m0 0m-1 1m-2 1h2l-1 3-10 8-6 7-1-3 10-10z" fill="#296BAF"/>
<path transform="translate(977,464)" d="m0 0 4 2 10 12 2 4-4-2-7-9v-2l-4-2z" fill="#D59E4E"/>
<path transform="translate(1258,652)" d="m0 0 3 1v3h2l2 7-1 4-2-1-4-11z" fill="#298ADE"/>
<path transform="translate(314,585)" d="m0 0h3l-3 10-3 3h-2l2-6z" fill="#298BDD"/>
<path transform="translate(1469,451)" d="m0 0 5 3 8 7 2 4h-3l-1-4-4-2-5-3z" fill="#C38C47"/>
<path transform="translate(1845,692)" d="m0 0 2 1-15 15-1 2h-2l2-4 13-13z" fill="#413D3A"/>
<path transform="translate(766,543)" d="m0 0h2v10l-2 6h-1v-8l-1-3z" fill="#2983D1"/>
<path transform="translate(317,457)" d="m0 0 2 3 3 11-1 3v-2h-2l-3-10z" fill="#2A87D3"/>
<path transform="translate(1329,637)" d="m0 0h2l3 5v2l4 2 7 8h-3l-5-5-5-6z" fill="#9D622F"/>
<path transform="translate(1722,633)" d="m0 0h2l-2 9-2 7-2-3 2-9z" fill="#AF7536"/>
<path transform="translate(1855,627)" d="m0 0 2 4 1 5v15h-1l-2-12z" fill="#D49C4A"/>
<path transform="translate(1271,589)" d="m0 0v3l-6 12h-1v-7l4-7z" fill="#296BAF"/>
<path transform="translate(1337,504)" d="m0 0 1 2-4 7-2 5-2 1 1-7 4-7z" fill="#BA823F"/>
<path transform="translate(311,597)" d="m0 0 1 2-6 9-4 2 6-12z" fill="#296AAD"/>
<path transform="translate(774,512)" d="m0 0 1 3-4 12-1 5h-1v-11z" fill="#2A7EC5"/>
<path transform="translate(876,486)" d="m0 0 4 1-10 5h-6l5-4z" fill="#A26831"/>
<path transform="translate(79,388)" d="m0 0 1 3-7 10-3 3-2-1z" fill="#2A7CC3"/>
<path transform="translate(571,703)" d="m0 0 9 3 8 4v1l-8-1-5-2z" fill="#2E2F32"/>
<path transform="translate(570,655)" d="m0 0 8 1 8 3-1 2-7-1-8-4z" fill="#A06530"/>
<path transform="translate(1703,635)" d="m0 0 1 3-4 13-2-3 2-9z" fill="#2A86D1"/>
<path transform="translate(1678,644)" d="m0 0 3 1 1 17-2-3-2-10z" fill="#A36831"/>
<path transform="translate(1335,551)" d="m0 0h5l-3 3-7 2-4-1v-2z" fill="#2C3B4B"/>
<path transform="translate(273,404)" d="m0 0h7l10 7v2l-5-2-6-4-6-2z" fill="#2C2C2E"/>
<path transform="translate(355,382)" d="m0 0 5 2 10 15-1 2-12-16z" fill="#9D622F"/>
<path transform="translate(147,699)" d="m0 0 9 4v3l-12-4z" fill="#2B3B4D"/>
<path transform="translate(66,637)" d="m0 0 5 1 4 6-1 4-4-5z" fill="#298CDD"/>
<path transform="translate(1161,515)" d="m0 0 2 1-6 9-4 4-1-2 5-8z" fill="#C68E45"/>
<path transform="translate(1229,492)" d="m0 0 1 4-3 10-1 7-4-2 4-10z" fill="#9E632F"/>
<path transform="translate(578,487)" d="m0 0h5l-4 2-11 5h-5l4-3z" fill="#B67E3E"/>
<path transform="translate(1764,656)" d="m0 0 3 1 2 11-3-3v-2h-2l-1-6z" fill="#BC823C"/>
<path transform="translate(1007,648)" d="m0 0 1 2-5 9-4 2 2-5 3-6z" fill="#C99041"/>
<path transform="translate(1751,613)" d="m0 0h1l-1 9-2 6-2-3 1-6z" fill="#2985D6"/>
<path transform="translate(536,541)" d="m0 0h1l-1 16-2 2v-11z" fill="#D7A55B"/>
<path transform="translate(653,545)" d="m0 0 2 2 1 3v8h-3l-1-12z" fill="#2B93DA"/>
<path transform="translate(1154,527)" d="m0 0 1 3-5 15h-1l1-10 3-7z" fill="#D49D4B"/>
<path transform="translate(109,681)" d="m0 0 5 2 8 6-1 2-13-8z" fill="#296CB1"/>
<path transform="translate(711,654)" d="m0 0 1 2-6 10-2-1 1-4 2-4z" fill="#C89046"/>
<path transform="translate(724,606)" d="m0 0h1l1 11-3 5-2 3 1-7z" fill="#B27838"/>
<path transform="translate(75,645)" d="m0 0 5 5 4 5-1 2-4-4-3-1-2-5z" fill="#2965A5"/>
<path transform="translate(1409,491)" d="m0 0 5 1 7 6-1 3-7-6z" fill="#2968AA"/>
<path transform="translate(47,448)" d="m0 0h1v12l-1 5h-1l-1-10z" fill="#2D98DB"/>
<path transform="translate(669,445)" d="m0 0 9 6 3 5-3-1-3-3-6-3-1-3z" fill="#B07537"/>
<path transform="translate(1244,445)" d="m0 0 3 1-1 8-2 3-1-5z" fill="#D8A65D"/>
<path transform="translate(374,640)" d="m0 0v3l-5 5-5 4 2-4 5-7z" fill="#C1873E"/>
<path transform="translate(1424,618)" d="m0 0h1v9l-1 3h-2l-1-4z" fill="#2988DB"/>
<path transform="translate(1263,600)" d="m0 0h1v7l-2 6h-2l1-9z" fill="#2985D6"/>
<path transform="translate(1344,433)" d="m0 0h2v3l-11 2h-4v-2z" fill="#2A72B7"/>
<path transform="translate(175,402)" d="m0 0 3 1-14 8h-3l4-4z" fill="#C68E45"/>
<path transform="translate(313,347)" d="m0 0 10 5 5 4-5-1-8-4z" fill="#B67C39"/>
<path transform="translate(1854,683)" d="m0 0 1 2-7 12h-1l1-7 4-4z" fill="#CB9242"/>
<path transform="translate(1833,672)" d="m0 0h1l-1 7-6 8-1-3 4-5z" fill="#2A81C8"/>
<path transform="translate(1988,671)" d="m0 0 1 4-4 10-3 1 2-7 3-5z" fill="#BC823C"/>
<path transform="translate(1600,667)" d="m0 0 2 4 2 6v4l-3-1-1-4z" fill="#2967A8"/>
<path transform="translate(869,653)" d="m0 0 16 6v1l-9-1-7-3z" fill="#B47E44"/>
<path transform="translate(1636,642)" d="m0 0 1 4-2 9-3 4 1-8z" fill="#2C2C2E"/>
<path transform="translate(57,616)" d="m0 0h2l3 9v2h-2l-4-9z" fill="#2989DD"/>
<path transform="translate(1420,500)" d="m0 0h2l3 7v3h-3l-3-9z" fill="#2982D0"/>
<path transform="translate(952,446)" d="m0 0 6 2 8 6-3 1-9-6-2-1z" fill="#B77D3A"/>
<path transform="translate(136,343)" d="m0 0h6v1l-6 2-7 5-2-1 1-3z" fill="#2B3848"/>
<path transform="translate(703,664)" d="m0 0 2 1-2 5-8 6 2-4 5-6z" fill="#C1883E"/>
<path transform="translate(1823,588)" d="m0 0 5 1 9 6 1 2-4-1-11-7z" fill="#BB8341"/>
<path transform="translate(693,465)" d="m0 0 6 5 4 5v2l-4-2-6-8z" fill="#D49D4C"/>
<path transform="translate(567,442)" d="m0 0h2v3l-11 6-2-1z" fill="#2C2C2E"/>
<path transform="translate(1180,433)" d="m0 0 3 1-13 7-2-1 3-3z" fill="#296CB1"/>
<path transform="translate(676,694)" d="m0 0 2 1-10 7-4 1 5-5z" fill="#A96E34"/>
<path transform="translate(1345,655)" d="m0 0 7 1 6 3v1h-6l-7-4z" fill="#A56A32"/>
<path transform="translate(928,648)" d="m0 0v3l-8 5h-2v-2l7-5z" fill="#296BAF"/>
<path transform="translate(640,635)" d="m0 0 3 1-7 9-3-1z" fill="#2985D6"/>
<path transform="translate(1654,632)" d="m0 0 1 3-2 6-1 2h-2l1-7z" fill="#A36831"/>
<path transform="translate(242,394)" d="m0 0h10l4 2v2l-10-2z" fill="#2A4F76"/>
<path transform="translate(1636,699)" d="m0 0h1v10l-2 5h-1l1-11z" fill="#AF7536"/>
<path transform="translate(1602,681)" d="m0 0h3l2 10-3-1z" fill="#2984D2"/>
</svg>
